# xmcd
#
# Track frame offsets:
#	150
#	10423
#	23143
#	35022
#	46979
#	59692
#	69277
#	80293
#	91392
#	101012
#	111039
#	124027
#
# Disc length: 1758 seconds
#
# Revision: 1
# Processed by: cddbd v1.4PL0 Copyright (c) Steve Scherf et al.
# Submitted via: audiograbber 1.80.04
#
DISCID=9806dc0c
DTITLE=Carl Perkins - Sun Records - 50th Anniversary Edition
DYEAR=1900
DGENRE=Rock
TTITLE0=Blue Suede Shoes
TTITLE1=Boppin' The Blues
TTITLE2=Gone, Gone, Gone
TTITLE3=You Can't Make Love To Somebody
TTITLE4=Honey Don't
TTITLE5=All Mama's Children
TTITLE6=Dixie Fried
TTITLE7=Pink Pedal Pushers
TTITLE8=Matchbox
TTITLE9=Everybody's Tryin' To Be My Baby
TTITLE10=Roll Over Beethoven
TTITLE11=Glad All Over
EXTD=
EXTT0=
EXTT1=
EXTT2=
EXTT3=
EXTT4=
EXTT5=
EXTT6=
EXTT7=
EXTT8=
EXTT9=
EXTT10=
EXTT11=
PLAYORDER=
